<svg width="274" height="53" viewBox="0 0 274 53" version="1.1" xmlns="http://www.w3.org/2000/svg" xmlns:xlink="http://www.w3.org/1999/xlink">
<g id="Canvas" transform="translate(316 477)">
<g id="Rectangle">
<use xlink:href="#path0_fill" transform="translate(-316 -477)" fill="#FFFFFF"/>
</g>
<g id="HNG">
<use xlink:href="#path1_fill" transform="translate(-309 -474)" fill="#1052AC"/>
</g>
<g id="Internship">
<use xlink:href="#path2_fill" transform="translate(-219 -474)" fill="#FFFFFF"/>
</g>
</g>
<defs>
<path id="path0_fill" d="M 0 5C 0 2.23858 2.23858 0 5 0L 92 0C 94.7614 0 97 2.23858 97 5L 97 48C 97 50.7614 94.7614 53 92 53L 5 53C 2.23858 53 0 50.7614 0 48L 0 5Z"/>
<path id="path1_fill" d="M 25.0415 36L 19.3286 36L 19.3286 24.1172L 8.18848 24.1172L 8.18848 36L 2.47559 36L 2.47559 8.27344L 8.18848 8.27344L 8.18848 19.5088L 19.3286 19.5088L 19.3286 8.27344L 25.0415 8.27344L 25.0415 36ZM 52.5967 36L 46.8838 36L 35.7627 17.7568L 35.7627 36L 30.0498 36L 30.0498 8.27344L 35.7627 8.27344L 46.9028 26.5547L 46.9028 8.27344L 52.5967 8.27344L 52.5967 36ZM 79.5234 32.4961C 78.4951 33.7275 77.0415 34.686 75.1626 35.3716C 73.2837 36.0444 71.2017 36.3809 68.9165 36.3809C 66.5171 36.3809 64.4097 35.8604 62.5942 34.8193C 60.7915 33.7656 59.395 32.2422 58.4048 30.249C 57.4272 28.2559 56.9258 25.9136 56.9004 23.2222L 56.9004 21.3369C 56.9004 18.5693 57.3638 16.1763 58.2905 14.1577C 59.23 12.1265 60.5757 10.5776 62.3276 9.51123C 64.0923 8.43213 66.1553 7.89258 68.5166 7.89258C 71.8047 7.89258 74.3755 8.67969 76.229 10.2539C 78.0825 11.8154 79.1807 14.0942 79.5234 17.0903L 73.9629 17.0903C 73.709 15.5034 73.144 14.3418 72.2681 13.6055C 71.4048 12.8691 70.2114 12.501 68.688 12.501C 66.7456 12.501 65.2666 13.231 64.251 14.6909C 63.2354 16.1509 62.7212 18.3218 62.7085 21.2036L 62.7085 22.9746C 62.7085 25.8818 63.2607 28.0781 64.3652 29.5635C 65.4697 31.0488 67.0884 31.7915 69.2212 31.7915C 71.3667 31.7915 72.8965 31.3345 73.8105 30.4204L 73.8105 25.6406L 68.6118 25.6406L 68.6118 21.4321L 79.5234 21.4321L 79.5234 32.4961Z"/>
<path id="path2_fill" d="M 8.55029 36L 2.8374 36L 2.8374 8.27344L 8.55029 8.27344L 8.55029 36ZM 18.5669 15.3955L 18.7383 17.7759C 20.2109 15.9351 22.1851 15.0146 24.6606 15.0146C 26.8442 15.0146 28.4692 15.6558 29.5356 16.938C 30.6021 18.2202 31.1479 20.1372 31.1733 22.689L 31.1733 36L 25.6699 36L 25.6699 22.8223C 25.6699 21.6543 25.416 20.8101 24.9082 20.2896C 24.4004 19.7563 23.5562 19.4897 22.3755 19.4897C 20.8267 19.4897 19.665 20.1499 18.8906 21.4702L 18.8906 36L 13.3872 36L 13.3872 15.3955L 18.5669 15.3955ZM 41.9517 10.3301L 41.9517 15.3955L 45.4746 15.3955L 45.4746 19.4326L 41.9517 19.4326L 41.9517 29.7158C 41.9517 30.4775 42.0977 31.0234 42.3896 31.3535C 42.6816 31.6836 43.2402 31.8486 44.0654 31.8486C 44.6748 31.8486 45.2144 31.8042 45.6841 31.7153L 45.6841 35.8857C 44.605 36.2158 43.4941 36.3809 42.3516 36.3809C 38.4922 36.3809 36.5244 34.4321 36.4482 30.5347L 36.4482 19.4326L 33.4395 19.4326L 33.4395 15.3955L 36.4482 15.3955L 36.4482 10.3301L 41.9517 10.3301ZM 58.0239 36.3809C 55.0024 36.3809 52.5396 35.4541 50.6353 33.6006C 48.7437 31.7471 47.7979 29.2778 47.7979 26.1929L 47.7979 25.6597C 47.7979 23.5903 48.1978 21.7432 48.9976 20.1182C 49.7974 18.4805 50.9272 17.2236 52.3872 16.3477C 53.8599 15.459 55.5356 15.0146 57.4146 15.0146C 60.2329 15.0146 62.4482 15.9033 64.0605 17.6807C 65.6855 19.458 66.498 21.978 66.498 25.2407L 66.498 27.4878L 53.3774 27.4878C 53.5552 28.8335 54.0884 29.9126 54.9771 30.7251C 55.8784 31.5376 57.0146 31.9438 58.3857 31.9438C 60.5059 31.9438 62.1626 31.1758 63.356 29.6396L 66.0601 32.6675C 65.2349 33.8354 64.1177 34.7495 62.7085 35.4097C 61.2993 36.0571 59.7378 36.3809 58.0239 36.3809ZM 57.3955 19.4707C 56.3037 19.4707 55.415 19.8389 54.7295 20.5752C 54.0566 21.3115 53.625 22.3652 53.4346 23.7363L 61.0898 23.7363L 61.0898 23.2983C 61.0645 22.0796 60.7344 21.1401 60.0996 20.48C 59.4648 19.8071 58.5635 19.4707 57.3955 19.4707ZM 81.2183 20.5562C 80.4692 20.4546 79.8091 20.4038 79.2378 20.4038C 77.1558 20.4038 75.791 21.1084 75.1436 22.5176L 75.1436 36L 69.6401 36L 69.6401 15.3955L 74.8389 15.3955L 74.9912 17.8521C 76.0957 15.9604 77.6255 15.0146 79.5806 15.0146C 80.1899 15.0146 80.7612 15.0972 81.2944 15.2622L 81.2183 20.5562ZM 88.9497 15.3955L 89.1211 17.7759C 90.5938 15.9351 92.5679 15.0146 95.0435 15.0146C 97.2271 15.0146 98.8521 15.6558 99.9185 16.938C 100.985 18.2202 101.531 20.1372 101.556 22.689L 101.556 36L 96.0527 36L 96.0527 22.8223C 96.0527 21.6543 95.7988 20.8101 95.291 20.2896C 94.7832 19.7563 93.939 19.4897 92.7583 19.4897C 91.2095 19.4897 90.0479 20.1499 89.2734 21.4702L 89.2734 36L 83.77 36L 83.77 15.3955L 88.9497 15.3955ZM 116.905 30.3062C 116.905 29.6333 116.568 29.1064 115.896 28.7256C 115.235 28.332 114.169 27.9829 112.696 27.6782C 107.796 26.6499 105.346 24.5679 105.346 21.4321C 105.346 19.604 106.101 18.0806 107.612 16.8618C 109.135 15.6304 111.122 15.0146 113.572 15.0146C 116.188 15.0146 118.276 15.6304 119.837 16.8618C 121.412 18.0933 122.199 19.6929 122.199 21.6606L 116.695 21.6606C 116.695 20.8735 116.441 20.2261 115.934 19.7183C 115.426 19.1978 114.632 18.9375 113.553 18.9375C 112.626 18.9375 111.909 19.147 111.401 19.5659C 110.894 19.9849 110.64 20.5181 110.64 21.1655C 110.64 21.7749 110.925 22.27 111.497 22.6509C 112.081 23.019 113.058 23.3428 114.429 23.6221C 115.8 23.8887 116.956 24.1934 117.895 24.5361C 120.802 25.6025 122.256 27.4497 122.256 30.0776C 122.256 31.9565 121.45 33.48 119.837 34.6479C 118.225 35.8032 116.143 36.3809 113.591 36.3809C 111.865 36.3809 110.329 36.0762 108.983 35.4668C 107.65 34.8447 106.603 34.0005 105.841 32.9341C 105.079 31.855 104.698 30.6934 104.698 29.4492L 109.916 29.4492C 109.967 30.4268 110.329 31.1758 111.001 31.6963C 111.674 32.2168 112.576 32.4771 113.706 32.4771C 114.759 32.4771 115.553 32.2803 116.086 31.8867C 116.632 31.4805 116.905 30.9536 116.905 30.3062ZM 131.187 17.6426C 132.647 15.8906 134.481 15.0146 136.69 15.0146C 141.159 15.0146 143.425 17.6108 143.489 22.8032L 143.489 36L 137.985 36L 137.985 22.9556C 137.985 21.7749 137.731 20.9053 137.224 20.3467C 136.716 19.7754 135.872 19.4897 134.691 19.4897C 133.079 19.4897 131.911 20.1118 131.187 21.356L 131.187 36L 125.684 36L 125.684 6.75L 131.187 6.75L 131.187 17.6426ZM 153.448 36L 147.926 36L 147.926 15.3955L 153.448 15.3955L 153.448 36ZM 147.602 10.0635C 147.602 9.23828 147.875 8.55908 148.421 8.02588C 148.979 7.49268 149.735 7.22607 150.687 7.22607C 151.626 7.22607 152.375 7.49268 152.934 8.02588C 153.493 8.55908 153.772 9.23828 153.772 10.0635C 153.772 10.9014 153.486 11.5869 152.915 12.1201C 152.356 12.6533 151.614 12.9199 150.687 12.9199C 149.76 12.9199 149.011 12.6533 148.44 12.1201C 147.881 11.5869 147.602 10.9014 147.602 10.0635ZM 176.547 25.8882C 176.547 29.062 175.824 31.6074 174.376 33.5244C 172.942 35.4287 171 36.3809 168.549 36.3809C 166.467 36.3809 164.785 35.6572 163.503 34.21L 163.503 43.9219L 158 43.9219L 158 15.3955L 163.103 15.3955L 163.293 17.4141C 164.626 15.8145 166.366 15.0146 168.511 15.0146C 171.05 15.0146 173.024 15.9541 174.434 17.833C 175.843 19.7119 176.547 22.3018 176.547 25.6025L 176.547 25.8882ZM 171.044 25.4883C 171.044 23.5713 170.701 22.0923 170.016 21.0513C 169.343 20.0103 168.359 19.4897 167.064 19.4897C 165.337 19.4897 164.15 20.1499 163.503 21.4702L 163.503 29.9062C 164.176 31.2646 165.375 31.9438 167.102 31.9438C 169.73 31.9438 171.044 29.792 171.044 25.4883Z"/>
</defs>
</svg>
